<?xml version="1.0" encoding="UTF-8"?>
<svg width="1200pt" height="1200pt" version="1.1" viewBox="0 0 1200 1200" xmlns="http://www.w3.org/2000/svg">
 <path d="m932 696c0-23.195 18.805-42 42-42h31c64.617 0 117 52.383 117 117v31c0 23.195-18.805 42-42 42s-42-18.805-42-42v-31c0-18.227-14.773-33-33-33h-31c-23.195 0-42-18.805-42-42z" fill="#a4a4a4" fill-rule="evenodd"/>
 <path d="m858 696c0-23.195-18.805-42-42-42h-31c-64.617 0-117 52.383-117 117v31c0 23.195 18.805 42 42 42s42-18.805 42-42v-31c0-18.227 14.773-33 33-33h31c23.195 0 42-18.805 42-42z" fill="#a4a4a4" fill-rule="evenodd"/>
 <path d="m1038 991v-31c0-23.195 18.805-42 42-42s42 18.805 42 42v31c0 64.617-52.383 117-117 117h-31c-23.195 0-42-18.805-42-42s18.805-42 42-42h31c18.227 0 33-14.773 33-33z" fill="#a4a4a4" fill-rule="evenodd"/>
 <path d="m708 918c-23.195 0-42 18.805-42 42v31c0 64.617 52.383 117 117 117h31c23.195 0 42-18.805 42-42s-18.805-42-42-42h-31c-18.227 0-33-14.773-33-33v-31c0-23.195-18.805-42-42-42z" fill="#a4a4a4" fill-rule="evenodd"/>
 <path d="m84 786c0-72.902 59.098-132 132-132h191c72.902 0 132 59.098 132 132v191c0 72.902-59.098 132-132 132h-191c-72.902 0-132-59.098-132-132zm132-48c-26.508 0-48 21.492-48 48v191c0 26.508 21.492 48 48 48h191c26.508 0 48-21.492 48-48v-191c0-26.508-21.492-48-48-48z" fill="#a4a4a4" fill-rule="evenodd"/>
 <path d="m666 204c0-72.902 59.098-132 132-132h191c72.902 0 132 59.098 132 132v191c0 72.902-59.098 132-132 132h-191c-72.902 0-132-59.098-132-132zm132-48c-26.508 0-48 21.492-48 48v191c0 26.508 21.492 48 48 48h191c26.508 0 48-21.492 48-48v-191c0-26.508-21.492-48-48-48z" fill="#a4a4a4" fill-rule="evenodd"/>
 <path d="m84 204c0-72.902 59.098-132 132-132h191c72.902 0 132 59.098 132 132v191c0 72.902-59.098 132-132 132h-191c-72.902 0-132-59.098-132-132zm132-48c-26.508 0-48 21.492-48 48v191c0 26.508 21.492 48 48 48h191c26.508 0 48-21.492 48-48v-191c0-26.508-21.492-48-48-48z" fill="#a4a4a4" fill-rule="evenodd"/>
</svg>
