<svg fill="none" height="35" viewBox="0 0 120 35" width="120" xmlns="http://www.w3.org/2000/svg" xmlns:xlink="http://www.w3.org/1999/xlink"><linearGradient id="a" gradientUnits="userSpaceOnUse" x1="13.4406" x2="31.3065" y1="16.8092" y2="21.8549"><stop offset="0" stop-color="#fff"/><stop offset="1" stop-color="#fff"/></linearGradient><linearGradient id="b"><stop offset="0" stop-color="#8697ff"/><stop offset="1" stop-color="#8697ff" stop-opacity="0"/></linearGradient><linearGradient id="c" gradientUnits="userSpaceOnUse" x1="28.2887" x2="15.3525" xlink:href="#b" y1="16.469" y2="3.55433"/><linearGradient id="d" gradientUnits="userSpaceOnUse" x1="21.6366" x2="9.23573" xlink:href="#b" y1="23.7218" y2="16.6214"/><linearGradient id="e" gradientUnits="userSpaceOnUse" x1="14.507" x2="22.9145" y1="16.6756" y2="27.3145"><stop offset="0" stop-color="#fff"/><stop offset=".983895" stop-color="#d1d8ff"/></linearGradient><g fill="#fff"><path d="m39.6688 17.4765h.4315c.451 0 .797-.1025 1.0381-.3074.241-.2049.3615-.4995.3615-.8837 0-.3843-.1205-.6788-.3615-.8837-.2411-.205-.5871-.3074-1.0381-.3074h-.4315zm5.0269 5.3406h-2.8459l-2.181-3.7141v3.7141h-2.286v-9.6567h3.5573c.4899 0 .9175.0811 1.283.2433.3654.1537.6648.3672.898.6404.2411.2732.4199.5891.5365.9477.1244.3586.1867.7429.1867 1.1527 0 .7343-.1633 1.332-.4899 1.793-.3188.4525-.7931.7599-1.4229.9222z"/><path d="m46.5765 19.5128c0 .2135.035.4141.105.602.07.1793.1633.3372.2799.4738.1244.1367.2683.2434.4316.3202.171.0769.3538.1153.5481.1153.1867 0 .3616-.0384.5249-.1153.1711-.0768.3149-.1835.4315-.3202.1244-.1366.2216-.2945.2916-.4738.0778-.1793.1166-.3714.1166-.5764 0-.2049-.0388-.397-.1166-.5763-.07-.1878-.1672-.3501-.2916-.4867-.1166-.1366-.2604-.2433-.4315-.3202-.1633-.0768-.3382-.1152-.5249-.1152-.1943 0-.3771.0384-.5481.1152-.1633.0769-.3072.1836-.4316.3202-.1166.1366-.2099.2946-.2799.4739-.07.1708-.105.3586-.105.5635zm2.6593-3.2659h2.1227v6.5702h-2.1227v-.73c-.451.6233-1.0614.9349-1.8312.9349-.4354 0-.8358-.0853-1.2013-.2561-.3654-.1793-.6842-.4269-.9564-.7428-.2721-.3159-.4859-.6874-.6414-1.1143-.1478-.4269-.2216-.8922-.2216-1.396 0-.4696.0738-.9136.2216-1.3319.1477-.427.3537-.7984.6181-1.1143s.5793-.5635.9447-.7428c.3655-.1878.7698-.2818 1.213-.2818.7465 0 1.3646.2861 1.8545.8581z"/><path d="m56.8655 19.5512c0-.2049-.035-.397-.1049-.5763-.07-.1878-.1672-.3501-.2916-.4867s-.2683-.2433-.4316-.3201c-.1632-.0854-.3421-.1281-.5365-.1281-.1866 0-.3615.0384-.5248.1152-.1633.0769-.3071.1836-.4315.3202-.1167.1366-.2139.2989-.2916.4867-.07.1793-.105.3714-.105.5763 0 .205.035.3971.105.5764s.1671.3372.2916.4738c.1244.1281.2682.2348.4315.3202.1711.0769.3499.1153.5365.1153s.3616-.0384.5248-.1153c.1633-.0768.3033-.1835.4199-.3202.1244-.1366.2216-.2945.2916-.4738.0778-.1793.1166-.3672.1166-.5636zm-2.6592-7.3642v4.7131c.4977-.572 1.1197-.8581 1.8661-.8581.4432 0 .8476.094 1.213.2818.3732.1793.6881.4269.9447.7428.2644.3074.4705.6745.6182 1.1015.1477.4183.2216.8666.2216 1.3447 0 .4867-.0778.9435-.2333 1.3704-.1477.4269-.3576.7983-.6298 1.1143-.2721.3159-.5948.5677-.968.7556-.3655.1793-.762.2689-1.1897.2689-.7775 0-1.3918-.3116-1.8428-.9349v.73h-2.111v-10.6301z"/><path d="m64.3437 19.5512c0-.2049-.035-.397-.105-.5763-.07-.1878-.1672-.3501-.2916-.4867s-.2682-.2433-.4315-.3201c-.1633-.0854-.3421-.1281-.5365-.1281-.1866 0-.3616.0384-.5249.1152-.1633.0769-.3071.1836-.4315.3202-.1166.1366-.2138.2989-.2916.4867-.07.1793-.105.3714-.105.5763 0 .205.035.3971.105.5764s.1672.3372.2916.4738c.1244.1281.2682.2348.4315.3202.1711.0769.3499.1153.5365.1153.1867 0 .3616-.0384.5249-.1153.1633-.0768.3032-.1835.4199-.3202.1244-.1366.2216-.2945.2916-.4738.0777-.1793.1166-.3672.1166-.5636zm-2.6592-7.3642v4.7131c.4976-.572 1.1196-.8581 1.8661-.8581.4432 0 .8475.094 1.213.2818.3732.1793.6881.4269.9447.7428.2643.3074.4704.6745.6181 1.1015.1478.4183.2216.8666.2216 1.3447 0 .4867-.0777.9435-.2332 1.3704-.1478.4269-.3577.7983-.6298 1.1143-.2722.3159-.5949.5677-.9681.7556-.3654.1793-.762.2689-1.1896.2689-.7776 0-1.3919-.3116-1.8428-.9349v.73h-2.1111v-10.6301z"/><path d="m68.902 21.9206-2.8925-5.6737h2.4493l1.5979 3.3684 1.5512-3.3684h2.4259l-4.8052 9.8489h-2.3677z"/><path d="m78.9945 13.1604 1.5162 6.2372 1.8661-6.2372h1.8195l1.8661 6.2372 1.5162-6.2372h2.391l-2.6243 9.6567h-2.3326l-1.7262-5.5968-1.7261 5.5968h-2.3327l-2.6242-9.6567z"/><path d="m91.5593 19.5128c0 .2135.035.4141.105.602.07.1793.1633.3372.2799.4738.1244.1367.2683.2434.4316.3202.171.0769.3537.1153.5481.1153.1866 0 .3616-.0384.5249-.1153.171-.0768.3149-.1835.4315-.3202.1244-.1366.2216-.2945.2916-.4738.0777-.1793.1166-.3714.1166-.5764 0-.2049-.0389-.397-.1166-.5763-.07-.1878-.1672-.3501-.2916-.4867-.1166-.1366-.2605-.2433-.4315-.3202-.1633-.0768-.3383-.1152-.5249-.1152-.1944 0-.3771.0384-.5481.1152-.1633.0769-.3072.1836-.4316.3202-.1166.1366-.2099.2946-.2799.4739-.07.1708-.105.3586-.105.5635zm2.6592-3.2659h2.1228v6.5702h-2.1228v-.73c-.4509.6233-1.0613.9349-1.8311.9349-.4354 0-.8359-.0853-1.2013-.2561-.3654-.1793-.6842-.4269-.9564-.7428-.2721-.3159-.486-.6874-.6415-1.1143-.1477-.4269-.2216-.8922-.2216-1.396 0-.4696.0739-.9136.2216-1.3319.1478-.427.3538-.7984.6182-1.1143s.5793-.5635.9447-.7428c.3655-.1878.7698-.2818 1.213-.2818.7464 0 1.3646.2861 1.8544.8581z"/><path d="m99.1891 12.187v10.6301h-2.1111v-10.6301z"/><path d="m102.043 12.187v10.6301h-2.1111v-10.6301z"/><path d="m107.159 18.5779c-.07-.3245-.213-.5849-.431-.7813-.218-.1963-.482-.2945-.793-.2945-.327 0-.595.0939-.805.2817-.202.1879-.33.4526-.385.7941zm-2.472 1.3448c0 .9989.428 1.4984 1.283 1.4984.459 0 .805-.2049 1.038-.6147h2.041c-.412 1.5027-1.442 2.2541-3.091 2.2541-.505 0-.968-.0811-1.388-.2434-.42-.1707-.781-.4098-1.084-.7172-.296-.3074-.525-.6745-.689-1.1014-.163-.4269-.245-.9051-.245-1.4344 0-.5465.078-1.0374.234-1.4729.155-.444.377-.8197.665-1.127.287-.3074.633-.5422 1.038-.7044.412-.1708.874-.2562 1.388-.2562.505 0 .96.0854 1.364.2562.404.1622.747.4013 1.026.7172.28.3159.494.7044.642 1.1654.148.4526.222.9649.222 1.5369v.2434z"/><path d="m112.073 18.1809v4.6362h-2.111v-4.6362h-.7v-1.934h.7v-1.9723h2.111v1.9723h1.201v1.934z"/></g><path d="m31.514 18.8241c1.0143-2.2753-4.0002-8.6321-8.7909-11.28053-3.0197-2.05168-6.1662-1.76981-6.8034-.86897-1.3986 1.97698 4.6309 3.6522 8.6634 5.607-.8669.378-1.6837 1.0564-2.1641 1.924-1.5033-1.648-4.8029-3.0672-8.6746-1.924-2.609.7703-4.77738 2.5864-5.61543 5.3295-.20363-.0909-.42909-.1414-.66629-.1414-.90706 0-1.64237.7383-1.64237 1.6491s.73531 1.6491 1.64237 1.6491c.16813 0 .69381-.1132.69381-.1132l8.40041.0611c-3.3595 5.3514-6.0145 6.1337-6.0145 7.0608 0 .9272 2.5404.6759 3.4942.3304 4.5661-1.6544 9.4704-6.8102 10.3119-8.2944 3.5341.4427 6.5041.4951 7.1655-.9885z" fill="url(#a)"/><path clip-rule="evenodd" d="m24.5824 12.2825c.0002 0 .0004.0001.0007.0002.1868-.0739.1566-.3511.1053-.5687-.118-.5004-2.1533-2.51844-4.0646-3.42234-2.6043-1.2317-4.5221-1.16819-4.8054-.60049.5305 1.09176 2.9899 2.11678 5.5585 3.18733 1.0958.4567 2.2116.9218 3.2059 1.4038-.0001 0-.0003.0001-.0004.0002z" fill="url(#c)" fill-rule="evenodd"/><path clip-rule="evenodd" d="m21.2783 23.2702c-.5267-.2021-1.1217-.3876-1.7982-.5559.7212-1.2958.8726-3.2141.1914-4.427-.9559-1.7021-2.1558-2.6081-4.9442-2.6081-1.5337 0-5.66285.5187-5.73615 3.9798-.00769.3632-.00019.696.02599 1.0021l7.54036.0549c-1.0166 1.6192-1.9686 2.8202-2.8021 3.7333 1.0007.2575 1.8265.4736 2.5846.6721.7195.1883 1.378.3607 2.0672.5373 1.0397-.7606 2.0171-1.5899 2.8711-2.3885z" fill="url(#d)" fill-rule="evenodd"/><path d="m8.02876 20.3055c.30803 2.6292 1.79617 3.6596 4.83704 3.9646 3.0409.3049 4.7852.1003 7.1074.3125 1.9395.1772 3.6713 1.1696 4.3137.8266.5782-.3086.2548-1.4237-.5189-2.1391-1.0029-.9274-2.3908-1.5722-4.833-1.801.4867-1.3381.3503-3.2142-.4056-4.235-1.093-1.4759-3.1103-2.1431-5.6636-1.8516-2.6676.3046-5.22361 1.6233-4.83704 4.923z" fill="url(#e)"/></svg>