<?xml version="1.0" standalone="no"?>
<!DOCTYPE svg PUBLIC "-//W3C//DTD SVG 20010904//EN"
 "http://www.w3.org/TR/2001/REC-SVG-20010904/DTD/svg10.dtd">
<svg version="1.0" xmlns="http://www.w3.org/2000/svg"
 width="160.000000pt" height="47.000000pt" viewBox="0 0 160.000000 47.000000"
 preserveAspectRatio="xMidYMid meet">

<g transform="translate(0.000000,47.000000) scale(0.100000,-0.100000)"
fill="#000000" stroke="none">
<path d="M120 245 l0 -125 125 0 125 0 0 125 0 125 -125 0 -125 0 0 -125z
m178 28 c-23 -49 -43 -83 -47 -83 -6 0 -51 75 -51 84 0 4 23 6 51 6 28 0 49
-3 47 -7z"/>
<path d="M1200 245 c0 -68 2 -75 20 -75 18 0 20 7 20 75 0 68 -2 75 -20 75
-18 0 -20 -7 -20 -75z"/>
<path d="M1260 245 c0 -68 2 -75 20 -75 18 0 20 7 20 75 0 68 -2 75 -20 75
-18 0 -20 -7 -20 -75z"/>
<path d="M480 240 l0 -70 40 0 c29 0 40 4 40 15 0 8 -9 15 -20 15 -18 0 -20 7
-20 55 0 48 -2 55 -20 55 -18 0 -20 -7 -20 -70z"/>
<path d="M884 288 c4 -13 12 -44 18 -70 9 -40 15 -48 34 -48 16 0 25 9 34 33
l12 32 9 -32 c7 -25 15 -33 33 -33 19 0 24 8 34 48 6 26 14 57 18 70 5 18 2
22 -15 22 -14 0 -22 -8 -27 -27 -10 -48 -11 -49 -19 -10 -6 30 -12 37 -31 37
-18 0 -26 -8 -32 -32 -9 -32 -11 -31 -26 15 -3 9 -15 17 -27 17 -17 0 -20 -4
-15 -22z"/>
<path d="M1433 284 c-13 -16 -23 -22 -27 -15 -10 16 -52 13 -70 -5 -20 -19
-21 -68 -2 -83 8 -7 27 -11 43 -9 23 2 30 10 37 41 5 20 13 37 17 37 4 0 9
-17 11 -37 3 -33 7 -38 31 -41 19 -2 27 1 27 12 0 9 -4 16 -10 16 -5 0 -10 11
-10 25 0 14 5 25 10 25 6 0 10 7 10 15 0 8 -4 15 -10 15 -5 0 -10 7 -10 15 0
23 -24 18 -47 -11z"/>
<path d="M580 237 c0 -54 13 -67 67 -67 l43 0 0 55 c0 48 -3 55 -19 55 -16 0
-20 -8 -23 -37 -2 -21 -7 -38 -13 -38 -5 0 -11 17 -13 38 -3 29 -7 37 -23 37
-16 0 -19 -7 -19 -43z"/>
<path d="M700 273 c0 -5 7 -17 15 -27 13 -17 13 -22 0 -42 -8 -13 -15 -26 -15
-29 0 -11 49 -4 54 8 5 10 7 10 12 0 6 -14 54 -18 54 -5 0 4 -7 16 -15 26 -13
17 -13 22 0 42 20 31 19 34 -10 34 -14 0 -25 -5 -25 -12 0 -9 -3 -9 -12 0 -13
13 -58 17 -58 5z"/>
<path d="M1104 266 c-3 -7 -4 -17 -3 -22 1 -5 -1 -17 -5 -26 -14 -32 1 -48 44
-48 l40 0 0 43 c0 24 -5 48 -12 55 -16 16 -57 15 -64 -2z"/>
</g>
</svg>
