<?xml version="1.0" standalone="no"?>
<!DOCTYPE svg PUBLIC "-//W3C//DTD SVG 20010904//EN"
 "http://www.w3.org/TR/2001/REC-SVG-20010904/DTD/svg10.dtd">
<svg version="1.0" xmlns="http://www.w3.org/2000/svg"
 width="200px" height="50px" viewBox="0 0 400.000000 105.000000"
 preserveAspectRatio="xMidYMid meet">

<g transform="translate(0.000000,105.000000) scale(0.100000,-0.100000)"
fill="#000000" stroke="none">
<path d="M390 525 l0 -345 350 0 350 0 0 345 0 345 -350 0 -350 0 0 -345z
m480 97 c0 -8 -117 -213 -129 -225 -6 -6 -141 211 -141 228 0 3 61 5 135 5 74
0 135 -3 135 -8z"/>
<path d="M2960 515 l0 -185 45 0 45 0 0 185 0 185 -45 0 -45 0 0 -185z"/>
<path d="M3110 515 l0 -185 45 0 45 0 0 185 0 185 -45 0 -45 0 0 -185z"/>
<path d="M1220 505 l0 -175 110 0 110 0 0 35 0 35 -60 0 -60 0 0 140 0 140
-50 0 -50 0 0 -175z"/>
<path d="M2160 675 c0 -6 75 -293 86 -327 4 -14 17 -18 59 -18 l53 0 21 83
c12 45 25 89 28 97 5 14 51 -126 52 -162 1 -15 11 -18 55 -18 43 0 56 4 60 18
10 33 86 321 86 326 0 4 -22 6 -48 6 l-49 0 -18 -87 c-10 -49 -21 -91 -24 -96
-4 -4 -17 36 -30 88 l-23 95 -52 0 -52 0 -24 -95 c-13 -52 -27 -95 -31 -95 -3
0 -15 42 -25 93 l-19 92 -52 3 c-29 2 -53 0 -53 -3z"/>
<path d="M3578 638 c-20 -7 -28 -17 -28 -34 0 -17 -6 -24 -20 -24 -16 0 -20
-7 -20 -30 0 -23 4 -30 20 -30 18 0 20 -7 20 -75 0 -96 17 -118 88 -113 43 3
47 6 50 30 3 21 -1 27 -20 30 -21 3 -23 9 -26 66 -3 61 -2 62 23 62 21 0 25 5
25 30 0 25 -4 30 -25 30 -22 0 -25 4 -25 35 0 38 -11 42 -62 23z"/>
<path d="M1472 474 c4 -139 8 -143 148 -143 l100 0 0 125 0 124 -45 0 -45 0 0
-78 c0 -89 -16 -125 -47 -106 -15 9 -19 27 -21 98 l-3 86 -45 0 -46 0 4 -106z"/>
<path d="M1750 573 c1 -5 18 -33 39 -63 l38 -55 -38 -57 c-22 -31 -39 -59 -39
-62 0 -4 24 -6 54 -6 50 0 54 2 66 30 7 17 16 30 20 30 4 0 13 -13 20 -30 12
-28 16 -30 66 -30 30 0 54 2 54 5 0 2 -16 29 -35 59 -19 30 -35 59 -35 63 0 5
16 32 35 60 19 29 35 55 35 58 0 3 -22 5 -50 5 -47 0 -51 -2 -68 -35 l-18 -36
-17 36 c-16 34 -19 35 -72 35 -30 0 -55 -3 -55 -7z"/>
<path d="M2720 571 c-19 -5 -26 -14 -28 -40 -3 -31 -2 -33 20 -27 58 17 84 18
97 2 11 -13 6 -16 -39 -22 -67 -9 -100 -35 -100 -80 0 -60 23 -73 139 -73
l101 0 0 95 c0 92 -1 97 -29 125 -26 25 -36 29 -83 28 -29 -1 -64 -4 -78 -8z
m100 -145 c0 -20 -27 -39 -45 -32 -22 8 -18 25 8 36 31 12 37 12 37 -4z"/>
<path d="M3304 561 c-40 -24 -58 -69 -51 -127 7 -68 40 -97 114 -102 81 -5
113 9 113 49 0 28 -2 31 -22 24 -50 -16 -83 -16 -103 -1 -18 14 -14 15 64 16
l84 0 -5 52 c-4 42 -11 57 -37 80 -39 35 -108 39 -157 9z m94 -53 c20 -20 14
-28 -25 -28 -35 0 -36 0 -18 20 21 23 27 24 43 8z"/>
</g>
</svg>
