<svg width="51" height="12" viewBox="0 0 51 12" fill="none" xmlns="http://www.w3.org/2000/svg">
<path d="M0 0H14L6.99999 12L0 0Z" fill="white"/>
<path d="M18 1H20.7489V7.66358H26.8485V9.86887H18V1Z" fill="white"/>
<path d="M33.1483 10H32.7236C32.0707 10 31.473 9.94437 30.9303 9.83311C30.3954 9.71391 29.9432 9.55894 29.5735 9.36821C29.2038 9.17748 28.8774 8.94702 28.5943 8.67682C28.3111 8.40662 28.0869 8.13245 27.9218 7.8543C27.7566 7.57616 27.619 7.27815 27.5088 6.96026C27.4066 6.64238 27.3358 6.35232 27.2965 6.09007C27.265 5.82781 27.2493 5.56556 27.2493 5.30331V1H30.01V5.13642C30.01 5.4543 30.0493 5.75232 30.128 6.03046C30.2145 6.30066 30.3561 6.57086 30.5527 6.84106C30.7494 7.10331 31.0482 7.31391 31.4494 7.47285C31.8584 7.62384 32.346 7.69934 32.9123 7.69934C33.4708 7.69934 33.9466 7.62384 34.3399 7.47285C34.741 7.31391 35.0399 7.10331 35.2365 6.84106C35.441 6.57086 35.5826 6.30066 35.6613 6.03046C35.7478 5.75232 35.7911 5.4543 35.7911 5.13642V1H38.54V5.30331C38.54 5.68477 38.4967 6.06622 38.4102 6.44768C38.3316 6.82119 38.1703 7.23046 37.9265 7.6755C37.6905 8.11258 37.3799 8.49801 36.9945 8.83179C36.6169 9.16556 36.0939 9.44371 35.4253 9.66622C34.7646 9.88874 34.0056 10 33.1483 10Z" fill="white"/>
<path d="M42.1869 9.86887H38.8008L43.1661 5.38675L38.8952 1H42.5762L45.0538 3.59868L47.5314 1H50.9056L46.6937 5.32715L51 9.86887H47.5432L44.8532 7.11523L42.1869 9.86887Z" fill="white"/>
</svg>
