<?xml version="1.0" standalone="no"?>
<!DOCTYPE svg PUBLIC "-//W3C//DTD SVG 20010904//EN"
 "http://www.w3.org/TR/2001/REC-SVG-20010904/DTD/svg10.dtd">
<svg version="1.0" xmlns="http://www.w3.org/2000/svg"
 width="13pt" height="13pt" viewBox="0 0 44.000000 41.000000"
 preserveAspectRatio="xMidYMid meet">

<g transform="translate(0.000000,41.000000) scale(0.100000,-0.100000)"
fill="grey" stroke="none">
<path d="M0 205 l0 -205 220 0 220 0 0 205 0 205 -220 0 -220 0 0 -205z m310
57 c0 -5 -12 -28 -28 -53 -15 -24 -32 -53 -38 -63 -13 -25 -34 -32 -34 -12 0
9 -4 16 -9 16 -5 0 -13 10 -17 23 -4 12 -17 36 -30 53 -13 17 -21 33 -18 36 9
9 174 9 174 0z"/>
</g>
</svg>
